REM MD5 f2001cf0a71e5beb0b26ebcd5c640c5d
FILE "Dengeki PlayStation D14 (Japan).bin" BINARY
  TRACK 01 MODE2/2352
    INDEX 01 00:00:00
  TRACK 02 AUDIO
    INDEX 00 57:42:03
    INDEX 01 57:44:03
  TRACK 03 AUDIO
    INDEX 00 60:51:53
    INDEX 01 60:53:53
  TRACK 04 AUDIO
    INDEX 00 62:43:00
    INDEX 01 62:45:00
REM LEADOUT 66:15:00
